<svg id="Clock_Logo" data-name="Clock Logo" xmlns="http://www.w3.org/2000/svg" width="266.599" height="271.729" viewBox="0 0 266.599 271.729">
  <g id="Image_Logo" data-name="Image/Logo" transform="translate(0 0)" fill="none">
    <path d="M135.466,0C210.282,0,266.339,70.741,266.6,135.394S210.282,270.788,135.466,270.788A135.394,135.394,0,1,1,135.466,0Z" stroke="none"/>
    <path d="M 135.4663391113281 0.999969482421875 C 126.3422698974609 0.999969482421875 117.2242431640625 1.918609619140625 108.3655242919922 3.730438232421875 C 99.73245239257812 5.49609375 91.24066162109375 8.130645751953125 83.1260986328125 11.56100463867188 C 75.15863037109375 14.92915344238281 67.47392272949219 19.09808349609375 60.28541564941406 23.95195007324219 C 53.16499328613281 28.75987243652344 46.46920776367188 34.28144836425781 40.38409423828125 40.36334228515625 C 34.29898071289062 46.4451904296875 28.77445983886719 53.13740539550781 23.9639892578125 60.25401306152344 C 19.10758972167969 67.43862915039062 14.93649291992188 75.11920166015625 11.5665283203125 83.08241271972656 C 8.134368896484375 91.19258117675781 5.4984130859375 99.67973327636719 3.731842041015625 108.3081207275391 C 1.91912841796875 117.1620178222656 1 126.2750854492188 1 135.3941955566406 C 1 144.5133056640625 1.91912841796875 153.6263732910156 3.731842041015625 162.4802703857422 C 5.4984130859375 171.1086578369141 8.134368896484375 179.5958404541016 11.5665283203125 187.7060241699219 C 14.93649291992188 195.669189453125 19.10758972167969 203.3497619628906 23.9639892578125 210.5343780517578 C 28.77445983886719 217.6509857177734 34.29898071289062 224.3432006835938 40.38409423828125 230.425048828125 C 46.46920776367188 236.5069427490234 53.16499328613281 242.0285186767578 60.28541564941406 246.8364105224609 C 67.47392272949219 251.6902618408203 75.15863037109375 255.8591918945312 83.1260986328125 259.2273254394531 C 91.24066162109375 262.6576843261719 99.73245239257812 265.2922973632812 108.3655242919922 267.0579223632812 C 117.2242431640625 268.8697204589844 126.3422698974609 269.7883605957031 135.4663391113281 269.7883605957031 C 152.2125549316406 269.7883605957031 168.5930938720703 266.2293395996094 184.1528778076172 259.2101745605469 C 191.4716644287109 255.9085845947266 198.6041259765625 251.828369140625 205.3522033691406 247.0828399658203 C 211.910888671875 242.4704895019531 218.1720581054688 237.1843719482422 223.9618835449219 231.3713684082031 C 250.1680297851562 205.0601959228516 265.7328186035156 169.182373046875 265.59765625 135.398193359375 C 265.5660095214844 127.4876556396484 264.6849060058594 119.3526611328125 262.9788208007812 111.2191619873047 C 261.2992858886719 103.2124786376953 258.8151245117188 95.17947387695312 255.5953521728516 87.34323120117188 C 252.3881683349609 79.53768920898438 248.4447784423828 71.91151428222656 243.8746643066406 64.67648315429688 C 239.2663116455078 57.38090515136719 234.0096740722656 50.46615600585938 228.2507019042969 44.12429809570312 C 222.3768005371094 37.65583801269531 215.9542694091797 31.75579833984375 209.1615905761719 26.58811950683594 C 202.1665649414062 21.26651000976562 194.7259521484375 16.68251037597656 187.04638671875 12.96343994140625 C 179.0801696777344 9.105560302734375 170.7677307128906 6.136566162109375 162.3400268554688 4.138946533203125 C 153.5526733398438 2.05609130859375 144.5110626220703 0.999969482421875 135.4663391113281 0.999969482421875 M 135.4663391113281 -3.0517578125e-05 C 210.2823486328125 -3.0517578125e-05 266.3390502929688 70.74073791503906 266.59765625 135.3941955566406 C 266.8562622070312 200.0476989746094 210.2823486328125 270.7883605957031 135.4663391113281 270.7883605957031 C 60.65034484863281 270.7883605957031 0 210.1703796386719 0 135.3941955566406 C 0 60.61805725097656 60.65034484863281 -3.0517578125e-05 135.4663391113281 -3.0517578125e-05 Z" stroke="none" fill="#55655d"/>
  </g>
  <line id="Line_99" data-name="Line 99" x2="1.271" y2="113.106" transform="translate(134.195 14.615)" fill="none" stroke="#55655d" stroke-width="1"/>
  <line id="Line_100" data-name="Line 100" x1="54" y2="58.793" transform="translate(76.972 135.074)" fill="none" stroke="#55655d" stroke-width="1"/>
  <g id="Path_23" data-name="Path 23" transform="translate(129.71 127.132)" fill="none">
    <path d="M4.484,0a4.448,4.448,0,0,1,0,8.9C2.027,8.9-.133,6.037-.133,3.581S2.027,0,4.484,0Z" stroke="none"/>
    <path d="M 4.483985900878906 0.4999971389770508 C 3.309605598449707 0.4999971389770508 2.263895511627197 0.7769575119018555 1.539475917816162 1.279847621917725 C 0.7615652084350586 1.819887638092041 0.3671255111694336 2.593997478485107 0.3671255111694336 3.580667495727539 C 0.3671255111694336 4.661057472229004 0.8426856994628906 5.879657745361328 1.639255523681641 6.840417861938477 C 2.458905696868896 7.829007625579834 3.495765686035156 8.395998001098633 4.483985900878906 8.395998001098633 C 6.660915374755859 8.395998001098633 8.431985855102539 6.624927520751953 8.431985855102539 4.447997570037842 C 8.431985855102539 2.27106761932373 6.660915374755859 0.4999971389770508 4.483985900878906 0.4999971389770508 M 4.483985900878906 -2.86102294921875e-06 C 6.940545558929443 -2.86102294921875e-06 8.931985855102539 1.991437435150146 8.931985855102539 4.447997570037842 C 8.931985855102539 6.904557704925537 6.940545558929443 8.895998001098633 4.483985900878906 8.895998001098633 C 2.027425765991211 8.895998001098633 -0.1328744888305664 6.037227630615234 -0.1328744888305664 3.580667495727539 C -0.1328744888305664 1.124107360839844 2.027425765991211 -2.86102294921875e-06 4.483985900878906 -2.86102294921875e-06 Z" stroke="none" fill="#55655d"/>
  </g>
  <g id="Path_20" data-name="Path 20" transform="translate(13.979 2.547)" fill="none">
    <path d="M127.111.02c65.34,0,109.5,58.6,109.5,130.92S183.647,261.887,118.308,261.887,0,203.26,0,130.941,61.772.02,127.111.02Z" stroke="none"/>
    <path d="M 127.111198425293 1.0203857421875 C 119.1486587524414 1.0203857421875 111.0715255737305 1.907257080078125 103.1042022705078 3.6563720703125 C 95.31985473632812 5.36529541015625 87.57652282714844 7.910507202148438 80.08932495117188 11.2213134765625 C 72.70405578613281 14.48701477050781 65.52349853515625 18.51670837402344 58.74713134765625 23.19847106933594 C 51.99102783203125 27.8662109375 45.60336303710938 33.20501708984375 39.76152038574219 39.06657409667969 C 33.87272644042969 44.97528076171875 28.50779724121094 51.44651794433594 23.81573486328125 58.30047607421875 C 19.03703308105469 65.281005859375 14.92362976074219 72.70741271972656 11.58976745605469 80.37333679199219 C 8.164459228515625 88.24964904785156 5.53009033203125 96.45451354980469 3.7598876953125 104.760009765625 C 1.928558349609375 113.3523101806641 1 122.1607818603516 1 130.940673828125 C 1 139.7643737792969 1.803054809570312 148.5821838378906 3.386932373046875 157.1491088867188 C 4.9302978515625 165.4970092773438 7.233062744140625 173.7079772949219 10.2313232421875 181.5539093017578 C 13.17466735839844 189.2561340332031 16.81753540039062 196.6846008300781 21.05870056152344 203.6329803466797 C 25.25859069824219 210.5137786865234 30.08155822753906 216.9837799072266 35.3935546875 222.86328125 C 40.70396423339844 228.7409362792969 46.54676818847656 234.0767517089844 52.75965881347656 238.7225036621094 C 59.02989196777344 243.4111022949219 65.732421875 247.4378356933594 72.68109130859375 250.6908416748047 C 79.75602722167969 254.0029754638672 87.159423828125 256.546630859375 94.68559265136719 258.2512512207031 C 102.4073638916016 260.0001525878906 110.3550262451172 260.8869018554688 118.307861328125 260.8869018554688 C 126.2606964111328 260.8869018554688 134.2083587646484 260.0001525878906 141.9301300048828 258.2512512207031 C 149.456298828125 256.546630859375 156.8596954345703 254.0029754638672 163.9346313476562 250.6908416748047 C 170.88330078125 247.4378356933594 177.5858306884766 243.4111022949219 183.8560638427734 238.7225036621094 C 190.0689697265625 234.0767517089844 195.9117584228516 228.7409362792969 201.22216796875 222.86328125 C 206.5341644287109 216.9837799072266 211.3571319580078 210.5137786865234 215.5570220947266 203.6329803466797 C 219.7981872558594 196.6846008300781 223.4410552978516 189.2561340332031 226.3843994140625 181.5539093017578 C 229.3826599121094 173.7079772949219 231.6854248046875 165.4970092773438 233.2287902832031 157.1491088867188 C 234.8126678466797 148.5821838378906 235.61572265625 139.7643737792969 235.61572265625 130.940673828125 C 235.61572265625 95.52610778808594 224.9520568847656 62.87091064453125 205.5890655517578 38.990478515625 C 200.8121337890625 33.09904479980469 195.5138244628906 27.76994323730469 189.8414306640625 23.15118408203125 C 184.0792999267578 18.45938110351562 177.8549652099609 14.43917846679688 171.3414001464844 11.20223999023438 C 157.7461547851562 4.446044921875 142.8649597167969 1.0203857421875 127.111198425293 1.0203857421875 M 127.111198425293 0.0203857421875 C 192.4508361816406 0.0203857421875 236.61572265625 58.62107849121094 236.61572265625 130.940673828125 C 236.61572265625 203.2603149414062 183.6474914550781 261.8869018554688 118.307861328125 261.8869018554688 C 52.96823120117188 261.8869018554688 0 203.2603149414062 0 130.940673828125 C 0 58.62107849121094 61.77156066894531 0.0203857421875 127.111198425293 0.0203857421875 Z" stroke="none" fill="#55655d"/>
  </g>
  <g id="Path_21" data-name="Path 21" transform="translate(6.944 6.354)" fill="none">
    <path d="M125.345,0c68.848,0,124.661,58.058,124.661,129.675S194.193,259.351,125.345,259.351,9.28,210.33-1.408,140.661,56.5,0,125.345,0Z" stroke="none"/>
    <path d="M 125.3445281982422 1 C 116.5942611694336 1 107.6308898925781 2.16644287109375 98.70335388183594 4.466934204101562 C 90.07002258300781 6.691604614257812 81.46005249023438 9.977401733398438 73.11262512207031 14.2330322265625 C 56.76579284667969 22.56694030761719 41.64591979980469 34.52113342285156 29.38761901855469 48.80332946777344 C 23.82032775878906 55.28981018066406 18.87461853027344 62.21949768066406 14.6878662109375 69.39990234375 C 10.41128540039062 76.734375 6.915786743164062 84.35073852539062 4.29852294921875 92.03742980957031 C 1.598251342773438 99.96786499023438 -0.183074951171875 108.0237731933594 -0.9960479736328125 115.9813690185547 C -1.841110229492188 124.2535095214844 -1.647079467773438 132.5059661865234 -0.419281005859375 140.5095367431641 C 2.2222900390625 157.7290954589844 7.115219116210938 173.7611389160156 14.12351989746094 188.1603698730469 C 21.11119079589844 202.5171051025391 30.10401916503906 215.0503387451172 40.85221862792969 225.411865234375 C 51.78616333007812 235.9524688720703 64.40798950195312 244.1152954101562 78.3670654296875 249.6736297607422 C 92.82682800292969 255.4313354492188 108.63232421875 258.3507385253906 125.3445281982422 258.3507385253906 C 133.7327575683594 258.3507385253906 142.1154479980469 257.4717407226562 150.2597961425781 255.7380981445312 C 158.197021484375 254.0485687255859 166.0044860839844 251.5274963378906 173.46533203125 248.244873046875 C 180.7916259765625 245.0214691162109 187.8581237792969 241.0315704345703 194.4684906005859 236.3860626220703 C 201.0170593261719 231.7839660644531 207.1752319335938 226.4985656738281 212.7719879150391 220.6766662597656 C 218.369384765625 214.8540954589844 223.4512634277344 208.4470367431641 227.8764190673828 201.6334381103516 C 232.3443603515625 194.7539978027344 236.1818542480469 187.3995056152344 239.2823638916016 179.7742004394531 C 242.4403533935547 172.0075378417969 244.8657989501953 163.8796691894531 246.4912872314453 155.6164703369141 C 248.1593627929688 147.1368713378906 249.0051574707031 138.4090270996094 249.0051574707031 129.6753692626953 C 249.0051574707031 120.9416961669922 248.1593627929688 112.2138671875 246.4912872314453 103.7342681884766 C 244.8657989501953 95.4710693359375 242.4403533935547 87.34320068359375 239.2823638916016 79.5765380859375 C 236.1818542480469 71.95123291015625 232.3443603515625 64.59674072265625 227.8764190673828 57.71730041503906 C 223.4512634277344 50.90370178222656 218.369384765625 44.49664306640625 212.7719879150391 38.674072265625 C 207.1752319335938 32.8521728515625 201.0170593261719 27.5667724609375 194.4684906005859 22.96467590332031 C 187.8581237792969 18.31916809082031 180.7916259765625 14.32926940917969 173.46533203125 11.10586547851562 C 166.0044860839844 7.8232421875 158.197021484375 5.302169799804688 150.2597961425781 3.612640380859375 C 142.1154479980469 1.878997802734375 133.7327575683594 1 125.3445281982422 1 M 125.3445281982422 0 C 194.1926574707031 0 250.0051574707031 58.05763244628906 250.0051574707031 129.6753692626953 C 250.0051574707031 201.2931060791016 194.1926574707031 259.3507385253906 125.3445281982422 259.3507385253906 C 56.49635314941406 259.3507385253906 9.279891967773438 210.3301391601562 -1.40771484375 140.6611633300781 C -12.09530639648438 70.99217224121094 56.49635314941406 0 125.3445281982422 0 Z" stroke="none" fill="#55655d"/>
  </g>
  <line id="Line_101" data-name="Line 101" x2="15.25" y2="17.792" transform="translate(216.917 238.382)" fill="none" stroke="#55655d" stroke-width="1"/>
  <line id="Line_102" data-name="Line 102" x2="12.709" y2="17.792" transform="translate(219.459 238.382)" fill="none" stroke="#55655d" stroke-width="1"/>
  <line id="Line_103" data-name="Line 103" x1="8.896" y2="16.521" transform="translate(61.693 254.903)" fill="none" stroke="#55655d" stroke-width="1"/>
  <line id="Line_104" data-name="Line 104" y1="16.521" x2="12.709" transform="translate(61.694 254.903)" fill="none" stroke="#55655d" stroke-width="1"/>
  <line id="Line_105" data-name="Line 105" x1="1.271" y2="113.106" transform="translate(132.923 14.615)" fill="none" stroke="#55655d" stroke-width="1"/>
  <line id="Line_106" data-name="Line 106" y1="57.189" x2="57.189" transform="translate(76.974 136.678)" fill="none" stroke="#55655d" stroke-width="1"/>
  <g id="Path_22" data-name="Path 22" transform="translate(129.747 128.403)" fill="none">
    <path d="M5.083,0C7.891,0,9.836.835,9.836,3.291S7.891,8.9,5.083,8.9,0,6.9,0,4.448,2.276,0,5.083,0Z" stroke="none"/>
    <path d="M 5.083428382873535 0.4999971389770508 C 2.556118488311768 0.4999971389770508 0.4999990463256836 2.27106761932373 0.4999990463256836 4.447997570037842 C 0.4999990463256836 6.624927520751953 2.556118488311768 8.395998001098633 5.083428382873535 8.395998001098633 C 6.207228660583496 8.395998001098633 7.284098625183105 7.797567367553711 8.115668296813965 6.7109375 C 8.880058288574219 5.712077617645264 9.336418151855469 4.433667659759521 9.336418151855469 3.291187763214111 C 9.336418151855469 2.092977523803711 8.895538330078125 0.4999971389770508 5.083428382873535 0.4999971389770508 M 5.083428382873535 -2.86102294921875e-06 C 7.890928745269775 -2.86102294921875e-06 9.836418151855469 0.8346271514892578 9.836418151855469 3.291187763214111 C 9.836418151855469 5.747747421264648 7.890928745269775 8.895998001098633 5.083428382873535 8.895998001098633 C 2.275928497314453 8.895998001098633 -9.5367431640625e-07 6.904557704925537 -9.5367431640625e-07 4.447997570037842 C -9.5367431640625e-07 1.991437435150146 2.275928497314453 -2.86102294921875e-06 5.083428382873535 -2.86102294921875e-06 Z" stroke="none" fill="#55655d"/>
  </g>
</svg>
